<?xml version="1.0" encoding="UTF-8"?> <!-- Generator: Adobe Illustrator 23.0.3, SVG Export Plug-In . SVG Version: 6.00 Build 0) --> <svg xmlns="http://www.w3.org/2000/svg" xmlns:xlink="http://www.w3.org/1999/xlink" version="1.1" id="Layer_1" x="0px" y="0px" viewBox="0 0 863 193" style="enable-background:new 0 0 863 193;" xml:space="preserve"> <style type="text/css"> .st0{fill:#FFFFFF;} .st1{fill:#CCCCCC;} .st2{fill:none;stroke:#000000;stroke-miterlimit:10;} .st3{fill:none;stroke:#000000;stroke-width:1.2;stroke-miterlimit:10;} .st4{stroke:#000000;stroke-width:0.5;stroke-miterlimit:10;} .st5{fill:none;} .st6{font-family:'Roboto-Regular';} .st7{font-size:13px;} .st8{fill:none;stroke:#000000;stroke-linecap:round;stroke-miterlimit:10;} .st9{fill:none;stroke:#999999;stroke-miterlimit:10;} .st10{fill:#999999;} </style> <g> <g> <g> <circle class="st0" cx="111" cy="73" r="60.5"></circle> <path class="st1" d="M111,13c33.1,0,60,26.9,60,60s-26.9,60-60,60s-60-26.9-60-60S77.9,13,111,13 M111,12c-33.7,0-61,27.3-61,61 s27.3,61,61,61s61-27.3,61-61S144.7,12,111,12L111,12z"></path> </g> <g> <path d="M125.5,75c-0.1-0.1-0.2-0.3-0.4-0.4c-0.3-0.5-0.6-0.9-0.9-1.4c-0.5-0.8-1.6-2.4-1.4-2.9c0.6-1.3,0.8-2,0.7-3.9 c-0.2-2.9-1.4-5.7-3.2-7.8c-2-2.3-5.7-3.6-10-3.6c-4,0-7.7,1.2-10,3.1c-1.8,1.6-4.8,4.8-4.9,9.4c0,1.2,0.1,2.4,0.3,3.5 c0,0,0,0.1,0,0.1c0.7,3.1,2.2,5.4,3.6,7.6l0.4,0.6c0.6,0.8,1.2,1.8,1.3,2.7c0.3,2.2,0,4.1-0.9,5.5c-0.6,0.9-1.3,1.9-2,2.8 C98,90.4,98,90.8,98.1,91c0.1,0.3,0.4,0.4,0.7,0.4H115c0.3,0,0.5-0.1,0.7-0.4c0.1-0.2,0.1-0.5,0-0.8c-0.4-0.7-0.6-1.4-0.6-2h4.7 c2.1,0,2.7-1.7,2.9-2.3l3-8.8C126.1,76.4,126,75.6,125.5,75z M97,67.5c0.1-3.7,2.4-6.5,4.4-8.2c2-1.7,5.3-2.7,9-2.7 c3.9,0,7.2,1.2,8.9,3.1c1.6,1.8,2.7,4.4,2.8,6.9c0.1,1.6-0.1,2-0.6,3.2c0,0,0,0,0,0.1c-0.4,1.1,0.5,2.6,1.5,4.2c0,0-0.1,0-0.1,0 L112,74c-0.8,0-1.5,0.3-2,0.7l-12.8-4.4C97,69.4,96.9,68.5,97,67.5z M101.1,78.4l-0.4-0.6c-1.2-1.8-2.4-3.6-3.1-5.8l11.5,3.9 c-0.1,0.2-0.1,0.4-0.1,0.6l0.6,7.2h-6.8c0-0.6,0-1.3-0.1-2C102.5,80.5,101.8,79.4,101.1,78.4z M100.3,89.9 c0.4-0.6,0.8-1.1,1.2-1.7c0.6-0.9,1-1.9,1.1-3h7.1l0,0.5c0,1.4,1.4,2.5,3,2.5h0.8c0,0.5,0.1,1.1,0.3,1.6H100.3z M115.1,87.6 L115.1,87.6C115.1,87.6,115.1,87.6,115.1,87.6L115.1,87.6z M124.4,76.7l-0.6,1.8l-0.4,1.3l-2,5.7c-0.4,1.1-0.9,1.3-1.5,1.3h-6 h-1.1c-0.8,0-1.5-0.5-1.5-1.1l-0.8-9.2c0-0.6,0.7-1,1.5-1l10.9,0c0.5,0,0.9,0.1,1.2,0.2c0.1,0.1,0.2,0.1,0.3,0.2 C124.5,76.2,124.4,76.5,124.4,76.7z"></path> <circle cx="117.3" cy="70.3" r="1.4"></circle> </g> <path class="st2" d="M128.2,104.5h-35c-6.6,0-12-5.4-12-12v-35c0-6.6,5.4-12,12-12h35c6.6,0,12,5.4,12,12v35 C140.2,99.1,134.8,104.5,128.2,104.5z"></path> </g> <g> <circle class="st0" cx="767" cy="73" r="60.5"></circle> <path class="st1" d="M767,13c33.1,0,60,26.9,60,60s-26.9,60-60,60s-60-26.9-60-60S733.9,13,767,13 M767,12c-33.7,0-61,27.3-61,61 s27.3,61,61,61s61-27.3,61-61S800.7,12,767,12L767,12z"></path> </g> <g> <g> <circle class="st0" cx="548.4" cy="73" r="60.5"></circle> <path class="st1" d="M548.4,13c33.1,0,60,26.9,60,60s-26.9,60-60,60s-60-26.9-60-60S515.3,13,548.4,13 M548.4,12 c-33.7,0-61,27.3-61,61s27.3,61,61,61c33.7,0,61-27.3,61-61S582,12,548.4,12L548.4,12z"></path> </g> <path class="st3" d="M577.9,104.5h-58c-2.2,0-4-1.8-4-4v-51c0-2.2,1.8-4,4-4h58c2.2,0,4,1.8,4,4v51 C581.9,102.7,580.1,104.5,577.9,104.5z"></path> <line class="st3" x1="515.9" y1="54.5" x2="581.9" y2="54.5"></line> <circle class="st2" cx="521.4" cy="50" r="1.5"></circle> <g> <path class="st4" d="M533.7,69.6c0.2,0,0.4-0.2,0.4-0.4v-7h7c0.2,0,0.4-0.2,0.4-0.4c0-0.2-0.2-0.4-0.4-0.4h-7.4 c-0.2,0-0.4,0.2-0.4,0.4v7.4C533.3,69.5,533.4,69.6,533.7,69.6z"></path> <path class="st4" d="M562.9,61.4h-7.4c-0.2,0-0.4,0.2-0.4,0.4c0,0.2,0.2,0.4,0.4,0.4h7v7c0,0.2,0.2,0.4,0.4,0.4 c0.2,0,0.4-0.2,0.4-0.4v-7.4C563.4,61.6,563.2,61.4,562.9,61.4z"></path> <path class="st4" d="M562.9,88.5c-0.2,0-0.4,0.2-0.4,0.4v7h-7c-0.2,0-0.4,0.2-0.4,0.4c0,0.2,0.2,0.4,0.4,0.4h7.4 c0.2,0,0.4-0.2,0.4-0.4v-7.4C563.4,88.6,563.2,88.5,562.9,88.5z"></path> <path class="st4" d="M541,95.8h-7v-7c0-0.2-0.2-0.4-0.4-0.4c-0.2,0-0.4,0.2-0.4,0.4v7.4c0,0.2,0.2,0.4,0.4,0.4h7.4 c0.2,0,0.4-0.2,0.4-0.4C541.4,96,541.3,95.8,541,95.8z"></path> <path class="st4" d="M553.1,86.7c0.3,0,1.1,0.1,1.7-0.4c0.5-0.4,0.7-1,0.7-1.8c0-0.5,0.1-0.5,0.1-0.6c0.3-0.1,0.5-0.4,0.5-0.8 c0-0.1,0-0.1,0-0.2c0.2-0.2,0.5-0.4,0.5-0.9c0-0.2,0-0.3,0-0.4c0,0,0,0,0,0c0,0,0.1,0,0.1,0c0.5,0,1.3-0.5,1.4-0.9 c0.1-0.4-0.1-0.8-0.3-1.3l-0.3-0.7c-0.3-0.7-0.6-1.5-0.6-1.7c0-0.1,0.1-0.4,0.2-0.6c0.1-0.2,0.2-0.4,0.2-0.6 c0.2-0.6,0.2-4.9-1.8-7c-1.4-1.5-3.3-2.3-5.6-2.6c-2.3-0.3-3.7,0.1-5,0.7c-0.9,0.4-3.2,1.7-4.3,3.9c-0.7,1.5-0.8,3.7-0.4,5.8 c0.3,1.5,1,2.8,1.6,3.9c0.4,0.7,0.7,1.4,0.7,1.7c-0.2,1.5-1.9,7-4,8.4c-0.2,0.1-0.2,0.4-0.1,0.6c0.1,0.1,0.2,0.2,0.3,0.2 c0.1,0,0.2,0,0.2-0.1c2.4-1.6,4.2-7.3,4.3-9c0.1-0.5-0.3-1.2-0.8-2.2c-0.5-1-1.2-2.3-1.5-3.7c-0.4-2-0.3-4,0.4-5.3 c0.9-2.1,3.2-3.2,3.9-3.5c1-0.4,2.2-0.9,4.6-0.6c2.1,0.3,3.8,1.1,5.1,2.4c1.7,1.7,1.7,5.6,1.6,6.1c-0.1,0.2-0.1,0.3-0.2,0.5 c-0.2,0.4-0.3,0.7-0.3,1c0,0.3,0.3,0.9,0.7,2l0.3,0.7c0.1,0.3,0.3,0.6,0.2,0.7c-0.1,0.1-0.4,0.4-0.5,0.4c0,0,0,0,0,0 c-0.3,0-0.6,0-0.9,0.2c-0.2,0.2-0.2,0.5-0.2,0.7c0,0.1,0,0.2,0,0.3c0,0.2-0.2,0.3-0.3,0.3c-0.2,0-0.3,0.2-0.3,0.3 c0,0.2,0,0.3,0.2,0.4c0,0,0,0.1,0,0.1c-0.6,0.2-0.6,1-0.6,1.3c0,0.6-0.2,1-0.4,1.2c-0.3,0.3-0.8,0.3-1,0.3 c-2.3-0.3-3.5-1.3-3.5-1.3c-0.2-0.1-0.4-0.1-0.6,0c-0.1,0.2-0.1,0.4,0,0.6c0,0,0.3,0.3,0.9,0.6c-0.1,0.7-0.5,3.2,0.4,4.4 c1,1.3,2.6,2,2.6,2c0.1,0,0.1,0,0.2,0c0.2,0,0.3-0.1,0.4-0.3c0.1-0.2,0-0.5-0.2-0.5c0,0-1.4-0.6-2.3-1.7 c-0.6-0.8-0.5-2.6-0.3-3.6C551.5,86.4,552.2,86.6,553.1,86.7z"></path> </g> </g> <rect x="254.4" y="150.7" class="st5" width="152.7" height="29.1"></rect> <text transform="matrix(1 0 0 1 280.8667 160.4146)"><tspan x="0" y="0" class="st6 st7">Add your existing</tspan><tspan x="27.2" y="15.6" class="st6 st7">Camera </tspan></text> <rect x="472.4" y="150.7" class="st5" width="152.7" height="29.1"></rect> <text transform="matrix(1 0 0 1 485.5337 160.4146)"><tspan x="0" y="0" class="st6 st7">Start getting No-mask </tspan><tspan x="20.1" y="15.6" class="st6 st7">data and alerts </tspan></text> <rect x="690.4" y="150.7" class="st5" width="152.7" height="29.1"></rect> <text transform="matrix(1 0 0 1 720.3486 160.4146)"><tspan x="0" y="0" class="st6 st7">Send sms alerts</tspan><tspan x="-19.7" y="15.6" class="st6 st7">to Admin and Violators</tspan></text> <rect x="19.9" y="149.2" class="st5" width="179.1" height="29.1"></rect> <text transform="matrix(1 0 0 1 25.0767 158.9146)"><tspan x="0" y="0" class="st6 st7">Subscribe to Face Mask Alert</tspan><tspan x="15.8" y="15.6" class="st6 st7">app on the Appsstore.ai</tspan></text> <g> <g> <circle class="st0" cx="329.7" cy="75" r="60.5"></circle> <path class="st1" d="M329.7,15c33.1,0,60,26.9,60,60s-26.9,60-60,60s-60-26.9-60-60S296.6,15,329.7,15 M329.7,14 c-33.7,0-61,27.3-61,61s27.3,61,61,61s61-27.3,61-61S363.4,14,329.7,14L329.7,14z"></path> </g> <g> <path d="M359.3,50.4H300c-0.4,0-0.7,0.3-0.7,0.7V60c0,0.4,0.3,0.7,0.7,0.7h4.6v5.8c0,0.4,0.3,0.7,0.7,0.7h2.4v14.7 c0,6,2.3,11,6.7,14.6c3.6,2.9,8.3,4.6,13.4,4.8c0,0,0,0,0,0c0,0,0.1,0,0.1,0c0,0,0,0,0.1,0c0.3,0,0.6,0,1,0l0,0c0,0,0,0,0.1,0 c0.2,0,0.4,0,0.6,0c0,0,0.1,0,0.1,0c5.3-0.2,10.1-1.8,13.8-4.8c4.4-3.5,6.7-8.6,6.7-14.6V67.2h3.5c0.4,0,0.7-0.3,0.7-0.7v-5.8 h4.6c0.4,0,0.7-0.3,0.7-0.7v-8.8C360,50.7,359.7,50.4,359.3,50.4z M339.1,97.7c-1.1,0.5-2.3,1-3.5,1.3c0,0,0,0,0,0 c-0.4,0.1-0.8,0.2-1.2,0.3c-0.1,0-0.1,0-0.2,0c-0.1,0-0.2,0-0.4,0.1c-0.1,0-0.1,0-0.2,0c-0.2,0-0.3,0.1-0.5,0.1 c-0.1,0-0.2,0-0.2,0c-0.1,0-0.2,0-0.3,0c-0.1,0-0.2,0-0.2,0c-0.2,0-0.3,0-0.5,0.1c-0.1,0-0.1,0-0.2,0c-0.1,0-0.3,0-0.4,0 c-0.1,0-0.1,0-0.2,0c-0.2,0-0.4,0-0.6,0c0,0-0.1,0-0.1,0c-0.2,0-0.3,0-0.5,0c-0.1,0-0.1,0-0.2,0c-0.2,0-0.3,0-0.5,0c0,0,0,0,0,0 c-0.1,0-0.2,0-0.4,0V77.5c0-2.9,2.3-5.2,5.2-5.2c2.9,0,5.2,2.3,5.2,5.2L339.1,97.7L339.1,97.7z M348.9,82 c0,7.2-3.5,12.1-8.4,14.9V77.5c0-3.7-3-6.7-6.7-6.7c-3.7,0-6.7,3-6.7,6.7v22.3c-9-0.7-18-6.3-18-17.8V67.2h39.7V82z M353.2,65.8 h-3.5h-41.2h-2.4v-5.1h47.1V65.8L353.2,65.8z M358.5,59.2h-4.6l0,0h-48.6l0,0h-4.6v-7.3h57.8V59.2L358.5,59.2z"></path> <path d="M333.9,81.2c-2.7,0-4.9,2.2-4.9,4.9s2.2,4.9,4.9,4.9s4.9-2.2,4.9-4.9S336.6,81.2,333.9,81.2z M333.9,89.5 c-1.9,0-3.4-1.5-3.4-3.4s1.5-3.4,3.4-3.4c1.9,0,3.4,1.5,3.4,3.4S335.8,89.5,333.9,89.5z"></path> </g> </g> <g> <g> <g> <g> <path class="st8" d="M781.7,84.9v16.7c0,1.4-1.3,2.4-2.7,2.4h-27.9c-1.4,0-2.5-1-2.5-2.4V47c0-1.4,1.1-2.5,2.5-2.5H779 c1.4,0,2.5,1.1,2.5,2.5l0,8"></path> </g> <polyline class="st8" points="779.1,84.9 779.1,95.5 751.1,95.5 751.1,49.6 779.1,49.6 779.1,55.1 "></polyline> <circle class="st2" cx="765.1" cy="99.6" r="2.3"></circle> <line class="st8" x1="763.4" y1="47" x2="767.6" y2="47"></line> </g> <path class="st8" d="M797.3,65c2.8-2.5,3.3-6.9,0.9-9.9c-2.4-3-6.7-3.6-9.8-1.4"></path> <path class="st8" d="M794.7,63.2c1.7-1.5,1.9-4.1,0.5-5.9c-1.4-1.8-4-2.1-5.8-0.8"></path> </g> <g> <g> <g> <path class="st2" d="M771.5,77.2c0,0,0-4.3,0-9.2c0-4.9,4.1-9,8.9-9s8.9,4,8.9,8.9c0,4.9,0,9.3,0,9.3"></path> </g> <path class="st2" d="M792.7,78.5c0,0.9-0.8,1.7-1.7,1.7h-20.4c-0.9,0-1.7-0.8-1.7-1.7l0,0c0-0.9,0.8-1.7,1.7-1.7H791 C792,76.8,792.7,77.6,792.7,78.5L792.7,78.5z"></path> <path class="st2" d="M778.4,80.2c0,0.9,1,2.1,2.1,2.1s2.1-1.2,2.1-2.1H778.4z"></path> <path class="st2" d="M781.6,58.8c0-1.3-0.6-1.4-1.4-1.4c-0.8,0-1.4,0.1-1.4,1.4H781.6z"></path> </g> </g> </g> <g> <g> <line class="st9" x1="172" y1="75.5" x2="265" y2="75.5"></line> <g> <polygon class="st10" points="264,79 270,75.5 264,72 "></polygon> </g> </g> </g> <g> <g> <line class="st9" x1="391" y1="75.5" x2="483" y2="75.5"></line> <g> <polygon class="st10" points="482,79 488,75.5 482,72 "></polygon> </g> </g> </g> <g> <g> <line class="st9" x1="609" y1="75.5" x2="701" y2="75.5"></line> <g> <polygon class="st10" points="700,79 706,75.5 700,72 "></polygon> </g> </g> </g> </g> </svg> 